<?xml version="1.0" standalone="no"?>
<!DOCTYPE svg PUBLIC "-//W3C//DTD SVG 20010904//EN"
 "http://www.w3.org/TR/2001/REC-SVG-20010904/DTD/svg10.dtd">
<svg version="1.0" xmlns="http://www.w3.org/2000/svg"
 width="230.000000pt" height="219.000000pt" viewBox="0 0 230.000000 219.000000"
 preserveAspectRatio="xMidYMid meet">

<g transform="translate(0.000000,219.000000) scale(0.100000,-0.100000)"
fill="#000000" stroke="none">
<path d="M1079 2066 c-41 -14 -84 -43 -116 -78 -21 -22 -769 -1325 -859 -1496
-38 -72 -44 -91 -44 -145 1 -100 43 -172 131 -219 l44 -23 885 -3 c618 -2 900
0 936 8 149 32 229 202 161 341 -46 94 -843 1482 -877 1527 -63 85 -170 121
-261 88z m137 -131 c13 -8 47 -56 77 -107 97 -166 733 -1280 781 -1369 59
-109 61 -151 12 -203 l-33 -36 -901 0 -900 0 -31 25 c-35 30 -55 82 -45 121
10 40 843 1500 883 1548 38 45 107 54 157 21z"/>
<path d="M1064 1622 c-72 -46 -100 -115 -89 -226 4 -39 27 -163 52 -276 25
-113 49 -245 55 -295 14 -122 10 -115 71 -115 l53 0 12 108 c7 59 33 197 57
307 28 122 48 237 51 295 6 91 5 97 -21 135 -42 63 -71 79 -145 83 -51 2 -72
-1 -96 -16z"/>
<path d="M1105 649 c-46 -11 -101 -59 -121 -106 -50 -116 36 -243 165 -243 58
0 93 15 133 57 48 51 61 122 35 186 -18 43 -91 107 -121 107 -13 0 -30 2 -38
4 -7 2 -31 0 -53 -5z"/>
</g>
</svg>
